<svg width="26" height="26" viewBox="0 0 26 26" fill="none" xmlns="http://www.w3.org/2000/svg">
<path d="M1.43639 25L1.43407 25C1.37492 24.9999 1.31642 24.9875 1.2623 24.9635C1.20818 24.9396 1.15962 24.9046 1.11971 24.8609L1.11978 24.8608L1.11076 24.8512C1.07128 24.809 1.04114 24.759 1.02233 24.7043C1.00355 24.6498 0.99649 24.5918 1.00163 24.5343C1.00164 24.5342 1.00164 24.5341 1.00165 24.5341L1.31831 21.0511L16.5022 5.86844L20.1342 9.50038L4.95446 24.6816L1.47157 24.9984L1.47041 24.9985C1.45908 24.9995 1.44772 25 1.43639 25ZM21.2441 1.12555L21.2445 1.12516C21.2841 1.08546 21.3312 1.05398 21.3829 1.03252C21.4347 1.01105 21.4902 1 21.5462 1C21.6023 1 21.6578 1.01105 21.7095 1.03252C21.7613 1.05399 21.8084 1.08546 21.848 1.12516L21.8484 1.12555L24.8744 4.15234L24.8748 4.15273C24.9145 4.19238 24.9459 4.23948 24.9674 4.29135C24.9889 4.34321 25 4.39881 25 4.45497C25 4.51113 24.9889 4.56674 24.9674 4.61861C24.9459 4.67046 24.9145 4.71756 24.8748 4.75721L24.8744 4.75761L22.5556 7.077L18.9249 3.44533L21.2441 1.12555Z" stroke="black" stroke-width="2"/>
</svg>
