<svg width="161" height="53" viewBox="0 0 161 53" fill="none" xmlns="http://www.w3.org/2000/svg">
<path d="M6.52538 53V21.968H0.117375V16.28H6.52538V10.88C6.52538 7.616 7.43738 5.072 9.26138 3.248C11.1334 1.376 13.7014 0.439999 16.9654 0.439999H24.8854V6.128H18.2614C16.6294 6.128 15.3814 6.584 14.5174 7.496C13.6534 8.408 13.2214 9.68 13.2214 11.312V16.28H37.9894V53H31.3654V21.968H13.2214V53H6.52538ZM34.6774 10.304C33.4774 10.304 32.4214 9.872 31.5094 9.008C30.6454 8.144 30.2134 7.088 30.2134 5.84C30.2134 4.64 30.6454 3.608 31.5094 2.744C32.4214 1.832 33.4774 1.376 34.6774 1.376C35.9254 1.376 36.9814 1.832 37.8454 2.744C38.7094 3.608 39.1414 4.64 39.1414 5.84C39.1414 7.088 38.7094 8.144 37.8454 9.008C36.9814 9.872 35.9254 10.304 34.6774 10.304Z" fill="#C44747"/>
<path d="M53.9216 53C51.6656 53 49.7696 52.208 48.2336 50.624C46.6976 49.04 45.9296 47.168 45.9296 45.008C45.9296 42.032 47.3936 39.608 50.3216 37.736L67.2416 27.008C67.9616 26.576 68.4176 26.144 68.6096 25.712C68.8496 25.28 68.9696 24.824 68.9696 24.344C68.9696 23.72 68.7296 23.168 68.2496 22.688C67.7696 22.208 67.1456 21.968 66.3776 21.968H47.7296V16.28H68.3936C70.6016 16.28 72.4496 17.072 73.9376 18.656C75.4736 20.192 76.2416 22.064 76.2416 24.272C76.2416 27.248 74.8016 29.672 71.9216 31.544L55.0016 42.272C54.2816 42.704 53.8016 43.136 53.5616 43.568C53.3696 44 53.2736 44.456 53.2736 44.936C53.2736 45.56 53.5136 46.112 53.9936 46.592C54.4736 47.072 55.1216 47.312 55.9376 47.312H75.5936V53H53.9216ZM103.943 53C99.8631 53 96.2631 52.256 93.1431 50.768C90.0711 49.232 87.6471 47.096 85.8711 44.36C84.1431 41.576 83.2791 38.336 83.2791 34.64C83.2791 30.992 84.0231 27.728 85.5111 24.848C86.9991 21.92 89.0631 19.616 91.7031 17.936C94.3431 16.256 97.4151 15.416 100.919 15.416C104.711 15.416 107.855 16.232 110.351 17.864C112.895 19.496 114.791 21.704 116.039 24.488C117.287 27.224 117.911 30.296 117.911 33.704C117.911 34.856 117.839 35.912 117.695 36.872H90.3351C90.5751 39.128 91.3191 41.048 92.5671 42.632C93.8151 44.168 95.3991 45.344 97.3191 46.16C99.2871 46.928 101.447 47.312 103.799 47.312H113.375V53H103.943ZM90.2631 32.192H111.215C111.215 30.608 110.903 28.952 110.279 27.224C109.655 25.496 108.599 24.032 107.111 22.832C105.623 21.584 103.559 20.96 100.919 20.96C98.7111 20.96 96.8151 21.536 95.2311 22.688C93.6951 23.792 92.4951 25.208 91.6311 26.936C90.8151 28.616 90.3591 30.368 90.2631 32.192ZM126.358 53V31.76C126.358 28.496 127.078 25.64 128.518 23.192C130.006 20.744 132.046 18.848 134.638 17.504C137.23 16.112 140.182 15.416 143.494 15.416C146.854 15.416 149.806 16.112 152.35 17.504C154.942 18.848 156.958 20.744 158.398 23.192C159.886 25.64 160.63 28.496 160.63 31.76V53H154.006V31.832C154.006 29.624 153.502 27.728 152.494 26.144C151.534 24.512 150.238 23.264 148.606 22.4C147.022 21.536 145.318 21.104 143.494 21.104C141.67 21.104 139.942 21.536 138.31 22.4C136.726 23.264 135.43 24.512 134.422 26.144C133.462 27.728 132.982 29.624 132.982 31.832V53H126.358Z" fill="#033666"/>
</svg>
