<svg width="61" height="20" viewBox="0 0 61 20" fill="none" xmlns="http://www.w3.org/2000/svg">
<path d="M2.781 20V8.363H0.378V6.23H2.781V4.205C2.781 2.981 3.123 2.027 3.807 1.343C4.509 0.640999 5.472 0.289999 6.696 0.289999H9.666V2.423H7.182C6.57 2.423 6.102 2.594 5.778 2.936C5.454 3.278 5.292 3.755 5.292 4.367V6.23H14.58V20H12.096V8.363H5.292V20H2.781ZM13.338 3.989C12.888 3.989 12.492 3.827 12.15 3.503C11.826 3.179 11.664 2.783 11.664 2.315C11.664 1.865 11.826 1.478 12.15 1.154C12.492 0.812 12.888 0.641 13.338 0.641C13.806 0.641 14.202 0.812 14.526 1.154C14.85 1.478 15.012 1.865 15.012 2.315C15.012 2.783 14.85 3.179 14.526 3.503C14.202 3.827 13.806 3.989 13.338 3.989Z" fill="#0E4A81"/>
<path d="M20.5546 20C19.7086 20 18.9976 19.703 18.4216 19.109C17.8456 18.515 17.5576 17.813 17.5576 17.003C17.5576 15.887 18.1066 14.978 19.2046 14.276L25.5496 10.253C25.8196 10.091 25.9906 9.929 26.0626 9.767C26.1526 9.605 26.1976 9.434 26.1976 9.254C26.1976 9.02 26.1076 8.813 25.9276 8.633C25.7476 8.453 25.5136 8.363 25.2256 8.363H18.2326V6.23H25.9816C26.8096 6.23 27.5026 6.527 28.0606 7.121C28.6366 7.697 28.9246 8.399 28.9246 9.227C28.9246 10.343 28.3846 11.252 27.3046 11.954L20.9596 15.977C20.6896 16.139 20.5096 16.301 20.4196 16.463C20.3476 16.625 20.3116 16.796 20.3116 16.976C20.3116 17.21 20.4016 17.417 20.5816 17.597C20.7616 17.777 21.0046 17.867 21.3106 17.867H28.6816V20H20.5546ZM39.3126 20C37.7826 20 36.4326 19.721 35.2626 19.163C34.1106 18.587 33.2016 17.786 32.5356 16.76C31.8876 15.716 31.5636 14.501 31.5636 13.115C31.5636 11.747 31.8426 10.523 32.4006 9.443C32.9586 8.345 33.7326 7.481 34.7226 6.851C35.7126 6.221 36.8646 5.906 38.1786 5.906C39.6006 5.906 40.7796 6.212 41.7156 6.824C42.6696 7.436 43.3806 8.264 43.8486 9.308C44.3166 10.334 44.5506 11.486 44.5506 12.764C44.5506 13.196 44.5236 13.592 44.4696 13.952H34.2096C34.2996 14.798 34.5786 15.518 35.0466 16.112C35.5146 16.688 36.1086 17.129 36.8286 17.435C37.5666 17.723 38.3766 17.867 39.2586 17.867H42.8496V20H39.3126ZM34.1826 12.197H42.0396C42.0396 11.603 41.9226 10.982 41.6886 10.334C41.4546 9.686 41.0586 9.137 40.5006 8.687C39.9426 8.219 39.1686 7.985 38.1786 7.985C37.3506 7.985 36.6396 8.201 36.0456 8.633C35.4696 9.047 35.0196 9.578 34.6956 10.226C34.3896 10.856 34.2186 11.513 34.1826 12.197ZM47.7181 20V12.035C47.7181 10.811 47.9881 9.74 48.5281 8.822C49.0861 7.904 49.8511 7.193 50.8231 6.689C51.7951 6.167 52.9021 5.906 54.1441 5.906C55.4041 5.906 56.5111 6.167 57.4651 6.689C58.4371 7.193 59.1931 7.904 59.7331 8.822C60.2911 9.74 60.5701 10.811 60.5701 12.035V20H58.0861V12.062C58.0861 11.234 57.8971 10.523 57.5191 9.929C57.1591 9.317 56.6731 8.849 56.0611 8.525C55.4671 8.201 54.8281 8.039 54.1441 8.039C53.4601 8.039 52.8121 8.201 52.2001 8.525C51.6061 8.849 51.1201 9.317 50.7421 9.929C50.3821 10.523 50.2021 11.234 50.2021 12.062V20H47.7181Z" fill="#090909"/>
</svg>
